{"title":"Die Obama Taeuschung [GERMAN][Xvid]","uid":6920685,"size":545534751,"categoryP":"video","categoryS":"movies","magnet":"?xt=urn:btih:eb51d81dc7b2eba19acdd8051aadaacaeaa71a80&amp;dn=Die+Obama+Taeuschung+%5BGERMAN%5D%5BXvid%5D&amp;tr=udp%3A%2F%2Ftracker.openbittorrent.com%3A80&amp;tr=udp%3A%2F%2Fopen.demonii.com%3A1337&amp;tr=udp%3A%2F%2Ftracker.coppersurfer.tk%3A6969&amp;tr=udp%3A%2F%2Fexodus.desync.com%3A6969","seeders":0,"leechers":0,"uploader":"khunrah","files":3,"time":1325204393,"description":"Ein Film von Alex Jones. Deutsche Version.\n\n\n\nGeneral\nComplete name                    : K:\\\\My Movies\\\\Infowars\\\\Die Obama TÃƒÂ¤uschung\\\\Die Obama TÃƒÂ¤uschung.avi\nFormat                           : AVI\nFormat/Info                      : Audio Video Interleave\nFile size                        : 519 MiB\nDuration                         : 1h 51mn\nOverall bit rate                 : 652 Kbps\n\nVideo\nID                               : 0\nFormat                           : MPEG-4 Visual\nFormat profile                   : Advanced Simple@L5\nFormat settings, BVOP            : 2\nFormat settings, QPel            : No\nFormat settings, GMC             : No warppoints\nFormat settings, Matrix          : Default (H.263)\nCodec ID                         : XVID\nCodec ID/Hint                    : XviD\nDuration                         : 1h 51mn\nBit rate                         : 515 Kbps\nWidth                            : 480 pixels\nHeight                           : 320 pixels\nDisplay aspect ratio             : 3:2\nFrame rate                       : 23.953 fps\nColor space                      : YUV\nChroma subsampling               : 4:2:0\nBit depth                        : 8 bits\nScan type                        : Progressive\nCompression mode                 : Lossy\nBits/(Pixel*Frame)               : 0.140\nStream size                      : 410 MiB (79%)\nWriting library                  : XviD 1.2.0.dev47 (UTC 2006-11-01)\n\nAudio\nID                               : 1\nFormat                           : MPEG Audio\nFormat version                   : Version 1\nFormat profile                   : Layer 3\nCodec ID                         : 55\nCodec ID/Hint                    : MP3\nDuration                         : 1h 51mn\nBit rate mode                    : Constant\nBit rate                         : 128 Kbps\nChannel(s)                       : 2 channels\nSampling rate                    : 44.1 KHz\nCompression mode                 : Lossy\nStream size                      : 102 MiB (20%)\nAlignment                        : Aligned on interleaves\nInterleave, duration             : 42 ms (1.00 video frame)\n\n","torrent":{"xt":"urn:btih:eb51d81dc7b2eba19acdd8051aadaacaeaa71a80","amp;dn":"Die+Obama+Taeuschung+%5BGERMAN%5D%5BXvid%5D","amp;tr":["udp%3A%2F%2Ftracker.openbittorrent.com%3A80","udp%3A%2F%2Fopen.demonii.com%3A1337","udp%3A%2F%2Ftracker.coppersurfer.tk%3A6969","udp%3A%2F%2Fexodus.desync.com%3A6969"],"infoHash":"eb51d81dc7b2eba19acdd8051aadaacaeaa71a80","infoHashBuffer":{"type":"Buffer","data":[235,81,216,29,199,178,235,161,154,205,216,5,26,173,170,202,234,167,26,128]},"announce":[],"urlList":[]}}